<svg width="70" height="70" viewBox="0 0 70 70" fill="none" xmlns="http://www.w3.org/2000/svg">
<circle cx="35.1211" cy="35.1211" r="32.5" fill="#D1FF47"/>
<path d="M18.5947 24.124C17.8304 26.1663 16.8016 30.4643 17.3149 34.1753C17.7973 37.6628 18.4013 41.0267 20.7653 44.1124C22.9699 46.9901 26.5196 49.0558 30.0103 51.0915C34.6509 53.7978 39.0109 51.6925 42.9003 49.928C45.6007 47.4198 47.753 45.5895 48.7614 44.0691C49.2299 43.2164 49.6106 42.1991 51.3504 39.8981" stroke="white" stroke-width="2.22538" stroke-linecap="round"/>
<path d="M45.1587 33.5384C44.8519 33.4236 44.119 33.499 43.1806 33.4153C42.7583 33.3777 42.6826 32.6222 42.7281 32.0193C42.7736 31.4163 43.0032 30.8028 43.3802 30.4962C43.7573 30.1895 44.2749 30.2084 44.7715 30.3042C45.2682 30.4 45.7284 30.5722 45.956 30.9197C46.1836 31.2672 46.1648 31.7847 46.069 32.2814C45.9731 32.7781 45.8009 33.2382 45.6235 33.7123" stroke="white" stroke-width="2.22538" stroke-linecap="round"/>
<path d="M28.9561 27.1196C28.6493 27.0048 27.9163 27.0802 26.9779 26.9966C26.5557 26.9589 26.4799 26.2034 26.5254 25.6005C26.5709 24.9975 26.8005 24.384 27.1776 24.0774C27.5547 23.7708 28.0722 23.7896 28.5689 23.8854C29.0656 23.9812 29.5257 24.1534 29.7533 24.5009C29.981 24.8484 29.9621 25.366 29.8663 25.8627C29.7705 26.3593 29.5983 26.8195 29.4208 27.2936" stroke="white" stroke-width="2.22538" stroke-linecap="round"/>
<circle cx="44.1049" cy="31.9364" r="0.553118" fill="white"/>
<circle cx="28.0642" cy="25.852" r="1.10624" fill="white"/>
</svg>
