<?xml version="1.0" encoding="UTF-8"?>
<svg id="Ebene_1" xmlns="http://www.w3.org/2000/svg" version="1.1" viewBox="0 0 70 70">
  <!-- Generator: Adobe Illustrator 30.2.1, SVG Export Plug-In . SVG Version: 2.1.1 Build 1)  -->
  <defs>
    <style>
      .st0 {
        fill: #d1ff47;
      }

      .st1 {
        fill: none;
        stroke-linecap: round;
        stroke-width: 2.2px;
      }

      .st1, .st2 {
        stroke: #000;
      }

      .st2 {
        stroke-miterlimit: 10;
      }
    </style>
  </defs>
  <circle class="st0" cx="35.1" cy="35.1" r="32.5"/>
  <path class="st1" d="M18.6,24.1c-.8,2-1.8,6.3-1.3,10.1.5,3.5,1.1,6.9,3.5,9.9,2.2,2.9,5.8,4.9,9.2,7,4.6,2.7,9,.6,12.9-1.2,2.7-2.5,4.9-4.3,5.9-5.9.5-.9.8-1.9,2.6-4.2"/>
  <path class="st1" d="M45.2,33.5c-.3-.1-1,0-2-.1-.4,0-.5-.8-.5-1.4,0-.6.3-1.2.7-1.5.4-.3.9-.3,1.4-.2.5,0,1,.3,1.2.6s.2.9.1,1.4c0,.5-.3,1-.4,1.4"/>
  <path class="st1" d="M29,27.1c-.3-.1-1,0-2-.1-.4,0-.5-.8-.5-1.4,0-.6.3-1.2.7-1.5s.9-.3,1.4-.2c.5,0,1,.3,1.2.6.2.3.2.9.1,1.4,0,.5-.3,1-.4,1.4"/>
  <circle class="st2" cx="44.1" cy="31.9" r=".6"/>
  <circle class="st2" cx="28.1" cy="25.9" r="1.1"/>
</svg>