<svg width="75" height="70" viewBox="0 0 75 70" fill="none" xmlns="http://www.w3.org/2000/svg">
<g clip-path="url(#clip0_1401_50)">
<ellipse cx="9.1539" cy="17.2201" rx="9.1539" ry="17.2201" transform="matrix(0.991066 0.13337 -0.00846618 0.999964 29.3081 33.1997)" fill="#DAC5FF"/>
<ellipse cx="9.1539" cy="19.0121" rx="9.1539" ry="19.0121" transform="matrix(-0.246606 -0.969116 -0.992337 0.123558 40.73 43.3741)" fill="#DAC5FF"/>
<ellipse cx="8.41145" cy="20.5324" rx="8.41145" ry="20.5324" transform="matrix(0.59499 -0.803733 -0.791291 -0.611439 35.9668 44.5086)" fill="#DAC5FF"/>
<ellipse cx="9.5699" cy="18.0431" rx="9.5699" ry="18.0431" transform="matrix(-0.750343 -0.661048 -0.659827 0.751417 45.2695 40.4391)" fill="#DAC5FF"/>
<ellipse cx="9.1539" cy="17.9155" rx="9.1539" ry="17.9155" transform="matrix(0.991066 0.13337 -0.00846618 0.999964 27.8428 -0.453918)" fill="#DAC5FF"/>
<ellipse cx="9.1539" cy="19.0121" rx="9.1539" ry="19.0121" transform="matrix(-0.246606 -0.969116 -0.992337 0.123558 76.5049 40.6835)" fill="#DAC5FF"/>
<ellipse cx="8.41145" cy="20.5324" rx="8.41145" ry="20.5324" transform="matrix(0.59499 -0.803733 -0.791291 -0.611439 60.2563 65.8059)" fill="#DAC5FF"/>
<ellipse cx="9.5699" cy="18.0431" rx="9.5699" ry="18.0431" transform="matrix(-0.750343 -0.661048 -0.659827 0.751417 68.9556 16.2611)" fill="#DAC5FF"/>
</g>
<defs>
<clipPath id="clip0_1401_50">
<rect width="74.7877" height="69.9989" fill="white"/>
</clipPath>
</defs>
</svg>
